<svg width="25" height="25" viewBox="0 0 25 25" fill="none" xmlns="http://www.w3.org/2000/svg"><path fill-rule="evenodd" clip-rule="evenodd" d="M8.51249 16.4885C12.5177 20.4938 16.2292 20.9323 17.3187 20.9729C18.6354 21.0208 19.9792 19.9458 20.5604 18.8448C19.6333 17.7573 18.426 16.9135 17.1031 15.999C16.3239 16.7781 15.3635 18.226 14.0823 17.7073C13.3542 17.4146 11.5562 16.5865 9.98541 15.0146C8.41353 13.4438 7.58645 11.6458 7.29166 10.9188C6.77291 9.63646 8.22499 8.67292 9.0052 7.89271C8.09062 6.54896 7.26145 5.31042 6.17603 4.43021C5.05936 5.01354 3.97811 6.34688 4.02707 7.68125C4.0677 8.77084 4.50624 12.4823 8.51249 16.4885ZM17.2417 23.0542C15.7417 22.999 11.4906 22.4125 7.03853 17.9604C2.58749 13.5094 2.00103 9.25938 1.94478 7.75834C1.86145 5.47084 3.61353 3.24896 5.63749 2.38125C5.88122 2.27601 6.14812 2.23594 6.412 2.26498C6.67589 2.29401 6.92769 2.39116 7.1427 2.54688C8.8177 3.76875 9.97291 5.6198 10.9656 7.0698C11.1721 7.37131 11.2667 7.73553 11.2331 8.09942C11.1994 8.46332 11.0396 8.804 10.7812 9.0625L9.36874 10.476C9.69687 11.2 10.3646 12.4479 11.4583 13.5417C12.5521 14.6354 13.8 15.3031 14.525 15.6313L15.9364 14.2188C16.1959 13.9599 16.538 13.8003 16.9031 13.7677C17.2682 13.7352 17.6332 13.8318 17.9344 14.0406C19.4135 15.0656 21.151 16.2042 22.4177 17.826C22.5861 18.0426 22.6932 18.3004 22.7278 18.5725C22.7624 18.8447 22.7233 19.1211 22.6146 19.3729C21.7427 21.4073 19.5364 23.1385 17.2417 23.0542Z" fill="#fff"/></svg>