<svg width="21" height="22" viewBox="0 0 21 22" fill="none" xmlns="http://www.w3.org/2000/svg"><path d="M11.9942 3.87043C11.9952 2.74496 9.70031 1.83337 6.87262 1.83337C4.04494 1.83337 1.75205 2.74598 1.75 3.87043M1.75 3.87043C1.75 4.99591 4.04289 5.90749 6.87262 5.90749C9.70236 5.90749 11.9952 4.99591 11.9952 3.87043L11.9952 11.7741M1.75 3.87043V16.0927C1.75102 17.2182 4.04391 18.1298 6.87263 18.1298C8.24446 18.1298 9.48311 17.9128 10.4021 17.5635M1.75102 7.94453C1.75102 9.07001 4.04391 9.98159 6.87365 9.98159C9.70339 9.98159 11.9963 9.07001 11.9963 7.94453M10.4636 13.4701C9.53946 13.8317 8.27213 14.0558 6.87263 14.0558C4.04391 14.0558 1.75102 13.1442 1.75102 12.0187M17.8166 12.3426C19.6167 14.1322 19.6167 17.035 17.8166 18.8245C16.0165 20.6141 13.0966 20.6141 11.2965 18.8245C9.49643 17.035 9.49643 14.1322 11.2965 12.3426C13.0966 10.5531 16.0165 10.5531 17.8166 12.3426Z" stroke="#FF9C37" stroke-width="1.83" stroke-linecap="round" stroke-linejoin="round"/></svg>