<svg width="30" height="30" viewBox="0 0 30 30" fill="none" xmlns="http://www.w3.org/2000/svg">
<path d="M22.875 7.1375C22.7594 7.02163 22.622 6.92969 22.4708 6.86696C22.3196 6.80424 22.1575 6.77195 21.9938 6.77195C21.83 6.77195 21.6679 6.80424 21.5167 6.86696C21.3655 6.92969 21.2281 7.02163 21.1125 7.1375L15 13.2375L8.8875 7.125C8.77178 7.00928 8.63439 6.91748 8.48318 6.85485C8.33198 6.79221 8.16992 6.75998 8.00626 6.75998C7.84259 6.75998 7.68053 6.79221 7.52933 6.85485C7.37812 6.91748 7.24073 7.00928 7.125 7.125C7.00928 7.24073 6.91748 7.37812 6.85485 7.52933C6.79221 7.68053 6.75998 7.84259 6.75998 8.00626C6.75998 8.16992 6.79221 8.33198 6.85485 8.48318C6.91748 8.63439 7.00928 8.77178 7.125 8.8875L13.2375 15L7.125 21.1125C7.00928 21.2282 6.91748 21.3656 6.85485 21.5168C6.79221 21.668 6.75998 21.8301 6.75998 21.9938C6.75998 22.1574 6.79221 22.3195 6.85485 22.4707C6.91748 22.6219 7.00928 22.7593 7.125 22.875C7.24073 22.9907 7.37812 23.0825 7.52933 23.1452C7.68053 23.2078 7.84259 23.24 8.00626 23.24C8.16992 23.24 8.33198 23.2078 8.48318 23.1452C8.63439 23.0825 8.77178 22.9907 8.8875 22.875L15 16.7625L21.1125 22.875C21.2282 22.9907 21.3656 23.0825 21.5168 23.1452C21.668 23.2078 21.8301 23.24 21.9938 23.24C22.1574 23.24 22.3195 23.2078 22.4707 23.1452C22.6219 23.0825 22.7593 22.9907 22.875 22.875C22.9907 22.7593 23.0825 22.6219 23.1452 22.4707C23.2078 22.3195 23.24 22.1574 23.24 21.9938C23.24 21.8301 23.2078 21.668 23.1452 21.5168C23.0825 21.3656 22.9907 21.2282 22.875 21.1125L16.7625 15L22.875 8.8875C23.35 8.4125 23.35 7.6125 22.875 7.1375Z" fill="white"/>
</svg>
